<?xml version="1.0"?><svg xmlns="http://www.w3.org/2000/svg" xmlns:xlink="http://www.w3.org/1999/xlink" version="1.1" viewBox="0 0 512 512" style="enable-background:new 0 0 512 512;" xml:space="preserve"><g id="_x30_1_x2C__Soccer_x2C__Soccer_Ball_Variant_x2C__Ball_x2C__Soccer_Ball_x2C__Football_Ball"><g><path d="M256,1.023C114.41,1.023,1.023,115.826,1.023,256c0,140.685,113.821,254.977,254.977,254.977    c142.058,0,254.977-115.288,254.977-254.977C510.977,115.415,397.272,1.023,256,1.023z M402.444,72.278l-4.556,90.35    l-66.975,39.369l-64.953-36.807V86.409l76.047-49.172C363.955,45.896,384.289,57.777,402.444,72.278z M169.993,37.236    l76.047,49.172v78.782l-64.953,36.807l-66.975-39.369l-4.556-90.35C127.711,57.777,148.045,45.896,169.993,37.236z     M23.537,290.895c-1.702-11.389-2.594-23.04-2.594-34.895c0-11.856,0.891-23.506,2.594-34.895l80.568-41.252l66.93,39.343v73.609    l-66.93,39.343L23.537,290.895z M109.556,439.722l4.556-90.35l66.975-39.369l64.953,36.807v78.782l-76.047,49.172    C148.045,466.104,127.711,454.223,109.556,439.722z M342.007,474.763l-76.047-49.172v-78.782l64.953-36.806l66.975,39.369    l4.556,90.35C384.289,454.223,363.955,466.104,342.007,474.763z M407.895,332.147l-66.93-39.343v-73.609l66.93-39.343    l80.568,41.252c1.702,11.389,2.594,23.04,2.594,34.895c0,11.856-0.891,23.506-2.594,34.895L407.895,332.147z"/></g></g><g id="Layer_1"/></svg>